<svg width="45" height="45" viewBox="0 0 45 45" fill="none" xmlns="http://www.w3.org/2000/svg">
<path d="M21.3158 35.5263V15.9868L13.6184 23.6842L11.8421 22.1116L22.5 11.4537L33.1579 22.1116L31.3816 23.6842L23.6842 15.9868V35.5263H21.3158ZM22.5 0C28.4674 0 34.1903 2.37053 38.4099 6.5901C42.6295 10.8097 45 16.5326 45 22.5C45 28.4674 42.6295 34.1903 38.4099 38.4099C34.1903 42.6295 28.4674 45 22.5 45C16.5326 45 10.8097 42.6295 6.5901 38.4099C2.37053 34.1903 0 28.4674 0 22.5C0 16.5326 2.37053 10.8097 6.5901 6.5901C10.8097 2.37053 16.5326 0 22.5 0ZM22.5 2.36842C17.1608 2.36842 12.0402 4.48942 8.26482 8.26482C4.48942 12.0402 2.36842 17.1608 2.36842 22.5C2.36842 27.8392 4.48942 32.9598 8.26482 36.7352C12.0402 40.5106 17.1608 42.6316 22.5 42.6316C27.8392 42.6316 32.9598 40.5106 36.7352 36.7352C40.5106 32.9598 42.6316 27.8392 42.6316 22.5C42.6316 17.1608 40.5106 12.0402 36.7352 8.26482C32.9598 4.48942 27.8392 2.36842 22.5 2.36842Z" fill="white"/>
</svg>
