<svg width="30" height="23" viewBox="0 0 30 23" fill="none" xmlns="http://www.w3.org/2000/svg">
<path d="M30 2.73211C28.8968 3.18123 27.6962 3.50445 26.4596 3.63034C27.7435 2.91052 28.7049 1.77332 29.1636 0.432114C27.9588 1.10847 26.6389 1.58274 25.2626 1.83389C24.6873 1.25353 23.9916 0.791199 23.2187 0.47569C22.4459 0.160181 21.6124 -0.00174128 20.7703 1.41212e-05C17.3633 1.41212e-05 14.6232 2.60623 14.6232 5.80445C14.6232 6.25356 14.6809 6.70267 14.7747 7.13477C9.67312 6.883 5.12318 4.583 2.09831 1.06155C1.54714 1.94996 1.25831 2.96152 1.26187 3.99099C1.26187 6.00519 2.34707 7.78122 4.00192 8.82575C3.0267 8.7895 2.0743 8.53654 1.22221 8.08743V8.15888C1.22221 10.9794 3.33494 13.3169 6.1507 13.8544C5.62201 13.984 5.07814 14.0503 4.53191 14.0518C4.13172 14.0518 3.75315 14.0144 3.37099 13.9633C4.14974 16.2633 6.4175 17.9339 9.11789 17.9883C7.00517 19.55 4.35885 20.4686 1.4854 20.4686C0.969836 20.4686 0.493931 20.4516 0 20.3972C2.72563 22.0473 5.95962 23 9.44237 23C20.7487 23 26.9355 14.1607 26.9355 6.48832C26.9355 6.23655 26.9355 5.98477 26.9174 5.733C28.1144 4.90622 29.1636 3.88211 30 2.73211Z" fill="white"/>
</svg>
