<svg width="33" height="23" viewBox="0 0 33 23" fill="none" xmlns="http://www.w3.org/2000/svg">
<path fill-rule="evenodd" clip-rule="evenodd" d="M16.1954 22.8554H18.1962C18.1962 22.8554 18.7964 22.7338 19.0965 22.3691C19.3966 22.0044 19.3966 21.275 19.3966 21.275C19.3966 21.275 19.3966 18.1141 20.5971 17.6278C21.7976 17.1416 23.3982 20.7887 24.9989 22.126C26.1994 23.2201 27.0997 22.977 27.0997 22.977L31.5015 22.8554C31.5015 22.8554 33.8024 22.7338 32.7019 20.424C32.6019 20.3024 32.1017 18.8436 29.4006 15.8043C26.5995 12.6434 26.9997 13.2513 30.301 7.78057C32.3018 4.49814 33.1021 2.553 32.902 1.58043C32.7019 0.729427 31.2013 0.97257 31.2013 0.97257H26.1993C26.1993 0.97257 25.7992 0.850999 25.5991 1.09414C25.299 1.33728 25.1989 1.702 25.1989 1.702C25.1989 1.702 24.3986 4.255 23.3982 6.44328C21.1974 10.9414 20.297 11.1846 19.9969 10.9414C19.1966 10.3336 19.3966 8.26685 19.3966 6.92956C19.3966 2.553 19.9969 0.729427 18.2962 0.243141C17.796 0.12157 17.3958 0 15.9953 0C14.1946 0 12.694 -4.71004e-07 11.8936 0.486285C11.2934 0.850999 10.8932 1.58043 11.1934 1.58043C11.4935 1.58043 12.2938 1.82357 12.694 2.43143C13.0941 3.52557 13.0941 5.34914 13.0941 5.34914C13.0941 5.34914 13.3942 10.5767 12.3938 11.1846C11.6936 11.6708 10.7932 10.6983 8.7924 6.56485C7.792 4.49814 6.99168 2.06671 6.99168 2.06671C6.99168 2.06671 6.89164 1.58043 6.59152 1.33729C6.2914 1.09414 5.7912 0.97257 5.7912 0.97257H1.08932C1.08932 0.97257 0.389044 0.972571 0.0889244 1.33729C-0.111155 1.702 0.0889244 2.30985 0.0889244 2.30985C0.0889244 2.30985 3.7904 12.765 7.99208 18.1141C11.8936 23.2201 16.1954 22.8554 16.1954 22.8554Z" fill="white"/>
</svg>
